<?xml version="1.0" encoding="UTF-8"?>
<!--Generator: Apple Native CoreSVG 341-->
<!DOCTYPE svg
PUBLIC "-//W3C//DTD SVG 1.1//EN"
       "http://www.w3.org/Graphics/SVG/1.1/DTD/svg11.dtd">
<svg version="1.1" xmlns="http://www.w3.org/2000/svg" xmlns:xlink="http://www.w3.org/1999/xlink" viewBox="0 0 3300 2200">
 <!--symbol: "symbol", point size: 100.0, font version: "22.0d4e4", template writer version: "138.0.0"-->
 <style>.SFSymbolsPreviewWireframe {fill:none;opacity:1.0;stroke:black;stroke-width:0.5}
</style>
 <g id="Notes">
  <rect height="2200" id="artboard" style="fill:white;opacity:1" width="3300" x="0" y="0"/>
  <line style="fill:none;stroke:black;opacity:1;stroke-width:0.5;" x1="263" x2="3036" y1="292" y2="292"/>
  <text style="stroke:none;fill:black;font-family:sans-serif;font-size:13;font-weight:bold;" transform="matrix(1 0 0 1 263 322)">Weight/Scale Variations</text>
  <text style="stroke:none;fill:black;font-family:sans-serif;font-size:13;text-anchor:middle;" transform="matrix(1 0 0 1 559.711 322)">Ultralight</text>
  <text style="stroke:none;fill:black;font-family:sans-serif;font-size:13;text-anchor:middle;" transform="matrix(1 0 0 1 856.422 322)">Thin</text>
  <text style="stroke:none;fill:black;font-family:sans-serif;font-size:13;text-anchor:middle;" transform="matrix(1 0 0 1 1153.13 322)">Light</text>
  <text style="stroke:none;fill:black;font-family:sans-serif;font-size:13;text-anchor:middle;" transform="matrix(1 0 0 1 1449.84 322)">Regular</text>
  <text style="stroke:none;fill:black;font-family:sans-serif;font-size:13;text-anchor:middle;" transform="matrix(1 0 0 1 1746.56 322)">Medium</text>
  <text style="stroke:none;fill:black;font-family:sans-serif;font-size:13;text-anchor:middle;" transform="matrix(1 0 0 1 2043.27 322)">Semibold</text>
  <text style="stroke:none;fill:black;font-family:sans-serif;font-size:13;text-anchor:middle;" transform="matrix(1 0 0 1 2339.98 322)">Bold</text>
  <text style="stroke:none;fill:black;font-family:sans-serif;font-size:13;text-anchor:middle;" transform="matrix(1 0 0 1 2636.69 322)">Heavy</text>
  <text style="stroke:none;fill:black;font-family:sans-serif;font-size:13;text-anchor:middle;" transform="matrix(1 0 0 1 2933.4 322)">Black</text>
  <line style="fill:none;stroke:black;opacity:1;stroke-width:0.5;" x1="263" x2="3036" y1="1903" y2="1903"/>
  <g transform="matrix(0.2 0 0 0.2 263 1933)">
   <path d="m46.2402 4.15039c21.7773 0 39.4531-17.627 39.4531-39.4043s-17.6758-39.4043-39.4531-39.4043c-21.7285 0-39.4043 17.627-39.4043 39.4043s17.6758 39.4043 39.4043 39.4043Zm0-7.42188c-17.6758 0-31.9336-14.3066-31.9336-31.9824s14.2578-31.9824 31.9336-31.9824 31.9824 14.3066 31.9824 31.9824-14.3066 31.9824-31.9824 31.9824Zm3.61328-17.7734v-28.4668c0-2.24609-1.46484-3.75977-3.71094-3.75977-2.14844 0-3.61328 1.51367-3.61328 3.75977v28.4668c0 2.19727 1.46484 3.71094 3.61328 3.71094 2.24609 0 3.71094-1.51367 3.71094-3.71094Zm-17.8223-10.5957h28.418c2.19727 0 3.71094-1.46484 3.71094-3.61328 0-2.19727-1.51367-3.71094-3.71094-3.71094h-28.418c-2.24609 0-3.75977 1.51367-3.75977 3.71094 0 2.14844 1.51367 3.61328 3.75977 3.61328Z"/>
  </g>
  <g transform="matrix(0.2 0 0 0.2 281.506 1933)">
   <path d="m58.5449 14.5508c27.4902 0 49.8047-22.3145 49.8047-49.8047s-22.3145-49.8047-49.8047-49.8047-49.8047 22.3145-49.8047 49.8047 22.3145 49.8047 49.8047 49.8047Zm0-8.30078c-22.9492 0-41.5039-18.5547-41.5039-41.5039s18.5547-41.5039 41.5039-41.5039 41.5039 18.5547 41.5039 41.5039-18.5547 41.5039-41.5039 41.5039Zm4.05273-23.0957v-36.9141c0-2.49023-1.70898-4.19922-4.15039-4.19922-2.39258 0-4.05273 1.70898-4.05273 4.19922v36.9141c0 2.44141 1.66016 4.15039 4.05273 4.15039 2.44141 0 4.15039-1.66016 4.15039-4.15039Zm-22.5586-14.4043h36.9629c2.44141 0 4.15039-1.61133 4.15039-4.00391 0-2.44141-1.70898-4.15039-4.15039-4.15039h-36.9629c-2.49023 0-4.15039 1.70898-4.15039 4.15039 0 2.39258 1.66016 4.00391 4.15039 4.00391Z"/>
  </g>
  <g transform="matrix(0.2 0 0 0.2 304.924 1933)">
   <path d="m74.8535 28.3203c35.1074 0 63.623-28.4668 63.623-63.5742s-28.5156-63.623-63.623-63.623-63.5742 28.5156-63.5742 63.623 28.4668 63.5742 63.5742 63.5742Zm0-9.08203c-30.127 0-54.4922-24.3652-54.4922-54.4922s24.3652-54.4922 54.4922-54.4922 54.4922 24.3652 54.4922 54.4922-24.3652 54.4922-54.4922 54.4922Zm4.44336-30.3223v-48.4863c0-2.73438-1.85547-4.63867-4.54102-4.63867-2.58789 0-4.44336 1.9043-4.44336 4.63867v48.4863c0 2.68555 1.85547 4.58984 4.44336 4.58984 2.68555 0 4.54102-1.85547 4.54102-4.58984Zm-28.7109-19.7754h48.4863c2.68555 0 4.58984-1.80664 4.58984-4.39453 0-2.73438-1.85547-4.58984-4.58984-4.58984h-48.4863c-2.73438 0-4.58984 1.85547-4.58984 4.58984 0 2.58789 1.85547 4.39453 4.58984 4.39453Z"/>
  </g>
  <text style="stroke:none;fill:black;font-family:sans-serif;font-size:13;font-weight:bold;" transform="matrix(1 0 0 1 263 1953)">Design Variations</text>
  <text style="stroke:none;fill:black;font-family:sans-serif;font-size:13;" transform="matrix(1 0 0 1 263 1971)">Symbols are supported in up to nine weights and three scales.</text>
  <text style="stroke:none;fill:black;font-family:sans-serif;font-size:13;" transform="matrix(1 0 0 1 263 1989)">For optimal layout with text and other symbols, vertically align</text>
  <text style="stroke:none;fill:black;font-family:sans-serif;font-size:13;" transform="matrix(1 0 0 1 263 2007)">symbols with the adjacent text.</text>
  <line style="fill:none;stroke:#00AEEF;stroke-width:0.5;opacity:1.0;" x1="776" x2="776" y1="1919" y2="1933"/>
  <g transform="matrix(0.2 0 0 0.2 776 1933)">
   <path d="m16.5527 0.78125c2.58789 0 3.85742-0.976562 4.78516-3.71094l20.5566-57.5195h0.244141l20.6055 57.5195c0.927734 2.73438 2.19727 3.71094 4.73633 3.71094 2.58789 0 4.24805-1.5625 4.24805-4.00391 0-0.830078-0.146484-1.61133-0.537109-2.63672l-22.9004-60.9863c-1.12305-2.97852-3.125-4.49219-6.25-4.49219-3.02734 0-5.07812 1.46484-6.15234 4.44336l-22.9004 61.084c-0.390625 1.02539-0.537109 1.80664-0.537109 2.63672 0 2.44141 1.5625 3.95508 4.10156 3.95508Zm10.2051-20.9473h30.6641c2.00195 0 3.66211-1.66016 3.66211-3.66211 0-2.05078-1.66016-3.66211-3.66211-3.66211h-30.6641c-2.00195 0-3.66211 1.61133-3.66211 3.66211 0 2.00195 1.66016 3.66211 3.66211 3.66211Z"/>
  </g>
  <line style="fill:none;stroke:#00AEEF;stroke-width:0.5;opacity:1.0;" x1="792.836" x2="792.836" y1="1919" y2="1933"/>
  <text style="stroke:none;fill:black;font-family:sans-serif;font-size:13;font-weight:bold;" transform="matrix(1 0 0 1 776 1953)">Margins</text>
  <text style="stroke:none;fill:black;font-family:sans-serif;font-size:13;" transform="matrix(1 0 0 1 776 1971)">Leading and trailing margins on the left and right side of each symbol</text>
  <text style="stroke:none;fill:black;font-family:sans-serif;font-size:13;" transform="matrix(1 0 0 1 776 1989)">can be adjusted by modifying the x-location of the margin guidelines.</text>
  <text style="stroke:none;fill:black;font-family:sans-serif;font-size:13;" transform="matrix(1 0 0 1 776 2007)">Modifications are automatically applied proportionally to all</text>
  <text style="stroke:none;fill:black;font-family:sans-serif;font-size:13;" transform="matrix(1 0 0 1 776 2025)">scales and weights.</text>
  <g transform="matrix(0.2 0 0 0.2 1289 1933)">
   <path d="m14.209 13.1348 7.86133 7.86133c4.29688 4.39453 9.32617 4.10156 13.8672-1.02539l60.6934-68.2129-4.88281-4.88281-60.2539 67.6758c-1.80664 1.95312-3.4668 2.44141-5.81055 0.0976562l-5.17578-5.12695c-2.29492-2.29492-1.80664-3.95508 0.195312-5.81055l67.4805-62.1582-4.88281-4.83398-68.0664 62.5977c-4.98047 4.58984-5.32227 9.47266-1.02539 13.8184Zm44.873-97.4609c-2.05078 2.00195-2.24609 4.88281-1.07422 6.78711 1.12305 1.80664 3.4668 3.02734 6.5918 2.24609 5.85938-1.66016 12.5977-2.39258 18.8965 0.927734l-2.68555 7.12891c-1.61133 4.00391-0.732422 6.88477 1.70898 9.42383l10.2539 10.3027c2.34375 2.39258 4.54102 2.44141 7.08008 1.95312l4.44336-0.732422 2.58789 2.53906-0.195312 2.24609c-0.0976562 2.29492 0.537109 4.29688 2.7832 6.49414l3.36914 3.32031c2.29492 2.29492 5.51758 2.49023 7.8125 0.195312l12.9883-13.0371c2.29492-2.34375 2.14844-5.37109-0.195312-7.66602l-3.41797-3.41797c-2.19727-2.19727-4.05273-3.02734-6.34766-2.88086l-2.34375 0.244141-2.44141-2.44141 1.02539-4.6875c0.634766-2.73438-0.244141-4.98047-2.88086-7.61719l-11.2793-11.1816c-12.9395-12.8418-35.5957-11.0352-46.6797-0.146484Zm7.08008 2.05078c8.78906-6.39648 25.9766-5.66406 33.6914 1.95312l12.3047 12.207c1.02539 1.02539 1.2207 1.80664 0.927734 3.32031l-1.46484 6.64062 6.73828 6.68945 4.39453-0.244141c1.12305-0.0488281 1.51367 0.0488281 2.34375 0.878906l2.53906 2.49023-10.8398 10.8398-2.49023-2.49023c-0.830078-0.878906-0.976562-1.2207-0.927734-2.39258l0.292969-4.3457-6.68945-6.73828-6.83594 1.17188c-1.41602 0.292969-2.05078 0.195312-3.17383-0.878906l-8.93555-8.88672c-1.07422-1.02539-1.17188-1.70898-0.488281-3.36914l4.58984-11.4746c-6.10352-6.34766-17.041-7.51953-25.5859-4.58984-0.683594 0.244141-0.927734-0.390625-0.390625-0.78125Z"/>
  </g>
  <text style="stroke:none;fill:black;font-family:sans-serif;font-size:13;font-weight:bold;" transform="matrix(1 0 0 1 1289 1953)">Exporting</text>
  <text style="stroke:none;fill:black;font-family:sans-serif;font-size:13;" transform="matrix(1 0 0 1 1289 1971)">Symbols should be outlined when exporting to ensure the</text>
  <text style="stroke:none;fill:black;font-family:sans-serif;font-size:13;" transform="matrix(1 0 0 1 1289 1989)">design is preserved when submitting to Xcode.</text>
  <text id="template-version" style="stroke:none;fill:black;font-family:sans-serif;font-size:13;text-anchor:end;" transform="matrix(1 0 0 1 3036 1933)">Template v.7.0</text>
  <text style="stroke:none;fill:black;font-family:sans-serif;font-size:13;text-anchor:end;" transform="matrix(1 0 0 1 3036 1951)">Requires Xcode 26 or greater</text>
  <text id="descriptive-name" style="stroke:none;fill:black;font-family:sans-serif;font-size:13;text-anchor:end;" transform="matrix(1 0 0 1 3036 1969)">Generated from user-key</text>
  <text style="stroke:none;fill:black;font-family:sans-serif;font-size:13;text-anchor:end;" transform="matrix(1 0 0 1 3036 1987)">Typeset at 100.0 points</text>
  <text style="stroke:none;fill:black;font-family:sans-serif;font-size:13;" transform="matrix(1 0 0 1 263 726)">Small</text>
  <text style="stroke:none;fill:black;font-family:sans-serif;font-size:13;" transform="matrix(1 0 0 1 263 1156)">Medium</text>
  <text style="stroke:none;fill:black;font-family:sans-serif;font-size:13;" transform="matrix(1 0 0 1 263 1586)">Large</text>
 </g>
 <g id="Guides">
  <g id="H-reference" style="fill:#27AAE1;stroke:none;" transform="matrix(1 0 0 1 339 696)">
   <path d="M0.993654 0L3.63775 0L29.3281-67.1323L30.0303-67.1323L30.0303-70.459L28.1226-70.459ZM11.6885-24.4799L46.9815-24.4799L46.2315-26.7285L12.4385-26.7285ZM55.1196 0L57.7637 0L30.6382-70.459L29.4326-70.459L29.4326-67.1323Z"/>
  </g>
  <line id="Baseline-S" style="fill:none;stroke:#27AAE1;opacity:1;stroke-width:0.5;" x1="263" x2="3036" y1="696" y2="696"/>
  <line id="Capline-S" style="fill:none;stroke:#27AAE1;opacity:1;stroke-width:0.5;" x1="263" x2="3036" y1="625.541" y2="625.541"/>
  <g id="H-reference" style="fill:#27AAE1;stroke:none;" transform="matrix(1 0 0 1 339 1126)">
   <path d="M0.993654 0L3.63775 0L29.3281-67.1323L30.0303-67.1323L30.0303-70.459L28.1226-70.459ZM11.6885-24.4799L46.9815-24.4799L46.2315-26.7285L12.4385-26.7285ZM55.1196 0L57.7637 0L30.6382-70.459L29.4326-70.459L29.4326-67.1323Z"/>
  </g>
  <line id="Baseline-M" style="fill:none;stroke:#27AAE1;opacity:1;stroke-width:0.5;" x1="263" x2="3036" y1="1126" y2="1126"/>
  <line id="Capline-M" style="fill:none;stroke:#27AAE1;opacity:1;stroke-width:0.5;" x1="263" x2="3036" y1="1055.54" y2="1055.54"/>
  <g id="H-reference" style="fill:#27AAE1;stroke:none;" transform="matrix(1 0 0 1 339 1556)">
   <path d="M0.993654 0L3.63775 0L29.3281-67.1323L30.0303-67.1323L30.0303-70.459L28.1226-70.459ZM11.6885-24.4799L46.9815-24.4799L46.2315-26.7285L12.4385-26.7285ZM55.1196 0L57.7637 0L30.6382-70.459L29.4326-70.459L29.4326-67.1323Z"/>
  </g>
  <line id="Baseline-L" style="fill:none;stroke:#27AAE1;opacity:1;stroke-width:0.5;" x1="263" x2="3036" y1="1556" y2="1556"/>
  <line id="Capline-L" style="fill:none;stroke:#27AAE1;opacity:1;stroke-width:0.5;" x1="263" x2="3036" y1="1485.54" y2="1485.54"/>
  <line id="right-margin-Black-S" style="fill:none;stroke:#00AEEF;stroke-width:0.5;opacity:1.0;" x1="2980.67" x2="2980.67" y1="600.785" y2="720.121"/>
  <line id="left-margin-Black-S" style="fill:none;stroke:#00AEEF;stroke-width:0.5;opacity:1.0;" x1="2886.13" x2="2886.13" y1="600.785" y2="720.121"/>
  <line id="right-margin-Regular-S" style="fill:none;stroke:#00AEEF;stroke-width:0.5;opacity:1.0;" x1="1489.18" x2="1489.18" y1="600.785" y2="720.121"/>
  <line id="left-margin-Regular-S" style="fill:none;stroke:#00AEEF;stroke-width:0.5;opacity:1.0;" x1="1410.51" x2="1410.51" y1="600.785" y2="720.121"/>
  <line id="right-margin-Ultralight-S" style="fill:none;stroke:#00AEEF;stroke-width:0.5;opacity:1.0;" x1="598.702" x2="598.702" y1="600.785" y2="720.121"/>
  <line id="left-margin-Ultralight-S" style="fill:none;stroke:#00AEEF;stroke-width:0.5;opacity:1.0;" x1="520.721" x2="520.721" y1="600.785" y2="720.121"/>
 </g>
 <g id="Symbols">
  <g id="Black-S" transform="matrix(1 0 0 1 2886.13 696)">
    <path class="SFSymbolsPreviewWireframe" d="M 73.3252 -38.1653 C 73.3252 -39.584 72.1751 -40.7341 70.7563 -40.7341 C 69.3376 -40.7341 68.1875 -39.584 68.1875 -38.1653 Z M 70.7563 -34.8625 C 69.3376 -34.8625 68.1875 -33.7124 68.1875 -32.2937 C 68.1875 -30.875 69.3376 -29.7249 70.7563 -29.7249 Z M 76.6279 -29.7249 C 78.0466 -29.7249 79.1967 -30.875 79.1967 -32.2937 C 79.1967 -33.7124 78.0466 -34.8625 76.6279 -34.8625 Z M 18.2791 -8.8074 C 18.2791 -7.3887 19.4292 -6.2386 20.8479 -6.2386 C 22.2666 -6.2386 23.4167 -7.3887 23.4167 -8.8074 Z M 24.2886 -22.9814 L 26.1029 -21.1671 Z M 50.2058 -26.4221 L 50.2058 -23.8533 Z M 54.9588 -22.5263 C 56.1733 -21.7918 57.7532 -22.1809 58.4877 -23.3953 C 59.2222 -24.6097 58.8331 -26.1897 57.6187 -26.9241 L 56.2888 -24.7252 Z M 70.7563 -38.1653 L 68.1875 -38.1653 L 68.1875 -20.5505 L 73.3252 -20.5505 L 73.3252 -38.1653 Z M 70.7563 -32.2937 L 70.7563 -29.7249 L 76.6279 -29.7249 L 76.6279 -34.8625 L 70.7563 -34.8625 Z M 20.8479 -8.8074 L 23.4167 -8.8074 L 23.4167 -14.679 L 18.2791 -14.679 L 18.2791 -8.8074 Z M 20.8479 -14.679 L 23.4167 -14.679 C 23.4167 -17.1127 24.3855 -19.4467 26.1029 -21.1671 L 24.2886 -22.9814 L 22.4684 -24.8016 C 19.7872 -22.1151 18.2815 -18.4745 18.282 -14.679 Z M 24.2886 -22.9814 L 26.1029 -21.1671 C 27.8247 -22.8861 30.158 -23.8522 32.591 -23.8533 L 32.591 -28.9909 C 28.7957 -28.9891 25.1561 -27.4813 22.4714 -24.7986 Z M 32.591 -26.4221 L 32.591 -23.8533 L 50.2058 -23.8533 L 50.2058 -28.9909 L 32.591 -28.9909 Z M 50.2058 -26.4221 L 50.2058 -23.8533 C 51.8792 -23.8533 53.5232 -23.3953 54.9588 -22.5263 L 56.2888 -24.7252 L 57.6187 -26.9241 C 55.3813 -28.2735 52.8186 -28.988 50.2058 -28.9909 Z M 53.1416 -49.9085 L 50.5728 -49.9085 C 50.5728 -44.8413 46.4627 -40.7341 41.3984 -40.7341 L 41.3984 -35.5965 C 49.3027 -35.5965 55.7104 -42.0042 55.7104 -49.9085 Z M 41.3984 -38.1653 L 41.3984 -40.7341 C 36.3316 -40.7341 32.2241 -44.8416 32.2241 -49.9085 L 27.0864 -49.9085 C 27.0864 -42.0042 33.4941 -35.5965 41.3984 -35.5965 Z M 29.6552 -49.9085 L 32.2241 -49.9085 C 32.2241 -54.9756 36.3342 -59.0828 41.3984 -59.0828 L 41.3984 -64.2204 C 33.4941 -64.2204 27.0864 -57.8127 27.0864 -49.9085 Z M 41.3984 -61.6516 L 41.3984 -59.0828 C 46.4656 -59.0828 50.5728 -54.9727 50.5728 -49.9085 L 55.7104 -49.9085 C 55.7104 -57.8127 49.3027 -64.2204 41.3984 -64.2204 Z M 76.6279 -14.679 L 74.0591 -14.679 C 74.0591 -12.8558 72.5795 -11.3762 70.7563 -11.3762 L 70.7563 -6.2386 C 75.4178 -6.2386 79.1967 -10.0175 79.1967 -14.679 Z M 70.7563 -8.8074 L 70.7563 -11.3762 C 68.9323 -11.3762 67.4536 -12.8549 67.4536 -14.679 L 62.3159 -14.679 C 62.3159 -10.0175 66.0948 -6.2386 70.7563 -6.2386 Z M 64.8847 -14.679 L 67.4536 -14.679 C 67.4536 -16.5021 68.9332 -17.9817 70.7563 -17.9817 L 70.7563 -23.1194 C 66.0948 -23.1194 62.3159 -19.3405 62.3159 -14.679 Z M 70.7563 -20.5505 L 70.7563 -17.9817 C 72.5795 -17.9817 74.0591 -16.5021 74.0591 -14.679 L 79.1967 -14.679 C 79.1967 -19.3405 75.4178 -23.1194 70.7563 -23.1194 Z"/>
   </g>
  <g id="Regular-S" transform="matrix(1 0 0 1 1410.51 696)">
    <path class="SFSymbolsPreviewWireframe" d="M 65.3902 -38.1653 C 65.3902 -39.584 64.2401 -40.7341 62.8213 -40.7341 C 61.4026 -40.7341 60.2525 -39.584 60.2525 -38.1653 Z M 62.8213 -34.8625 C 61.4026 -34.8625 60.2525 -33.7124 60.2525 -32.2937 C 60.2525 -30.875 61.4026 -29.7249 62.8213 -29.7249 Z M 68.6929 -29.7249 C 70.1116 -29.7249 71.2617 -30.875 71.2617 -32.2937 C 71.2617 -33.7124 70.1116 -34.8625 68.6929 -34.8625 Z M 10.3441 -8.8074 C 10.3441 -7.3887 11.4942 -6.2386 12.9129 -6.2386 C 14.3316 -6.2386 15.4817 -7.3887 15.4817 -8.8074 Z M 16.3536 -22.9814 L 18.1679 -21.1671 Z M 42.2708 -26.4221 L 42.2708 -23.8533 Z M 47.0238 -22.5263 C 48.2383 -21.7918 49.8182 -22.1809 50.5527 -23.3953 C 51.2872 -24.6097 50.8981 -26.1897 49.6837 -26.9241 L 48.3538 -24.7252 Z M 62.8213 -38.1653 L 60.2525 -38.1653 L 60.2525 -20.5505 L 65.3902 -20.5505 L 65.3902 -38.1653 Z M 62.8213 -32.2937 L 62.8213 -29.7249 L 68.6929 -29.7249 L 68.6929 -34.8625 L 62.8213 -34.8625 Z M 12.9129 -8.8074 L 15.4817 -8.8074 L 15.4817 -14.679 L 10.3441 -14.679 L 10.3441 -8.8074 Z M 12.9129 -14.679 L 15.4817 -14.679 C 15.4817 -17.1127 16.4505 -19.4467 18.1679 -21.1671 L 16.3536 -22.9814 L 14.5334 -24.8016 C 11.8522 -22.1151 10.3465 -18.4745 10.347 -14.679 Z M 16.3536 -22.9814 L 18.1679 -21.1671 C 19.8897 -22.8861 22.223 -23.8522 24.656 -23.8533 L 24.656 -28.9909 C 20.8607 -28.9891 17.2211 -27.4813 14.5364 -24.7986 Z M 24.656 -26.4221 L 24.656 -23.8533 L 42.2708 -23.8533 L 42.2708 -28.9909 L 24.656 -28.9909 Z M 42.2708 -26.4221 L 42.2708 -23.8533 C 43.9442 -23.8533 45.5882 -23.3953 47.0238 -22.5263 L 48.3538 -24.7252 L 49.6837 -26.9241 C 47.4463 -28.2735 44.8836 -28.988 42.2708 -28.9909 Z M 45.2066 -49.9085 L 42.6378 -49.9085 C 42.6378 -44.8413 38.5277 -40.7341 33.4634 -40.7341 L 33.4634 -35.5965 C 41.3677 -35.5965 47.7754 -42.0042 47.7754 -49.9085 Z M 33.4634 -38.1653 L 33.4634 -40.7341 C 28.3966 -40.7341 24.2891 -44.8416 24.2891 -49.9085 L 19.1514 -49.9085 C 19.1514 -42.0042 25.5591 -35.5965 33.4634 -35.5965 Z M 21.7203 -49.9085 L 24.2891 -49.9085 C 24.2891 -54.9756 28.3992 -59.0828 33.4634 -59.0828 L 33.4634 -64.2204 C 25.5591 -64.2204 19.1514 -57.8127 19.1514 -49.9085 Z M 33.4634 -61.6516 L 33.4634 -59.0828 C 38.5306 -59.0828 42.6378 -54.9727 42.6378 -49.9085 L 47.7754 -49.9085 C 47.7754 -57.8127 41.3677 -64.2204 33.4634 -64.2204 Z M 68.6929 -14.679 L 66.1241 -14.679 C 66.1241 -12.8558 64.6445 -11.3762 62.8213 -11.3762 L 62.8213 -6.2386 C 67.4828 -6.2386 71.2617 -10.0175 71.2617 -14.679 Z M 62.8213 -8.8074 L 62.8213 -11.3762 C 60.9973 -11.3762 59.5186 -12.8549 59.5186 -14.679 L 54.3809 -14.679 C 54.3809 -10.0175 58.1598 -6.2386 62.8213 -6.2386 Z M 56.9498 -14.679 L 59.5186 -14.679 C 59.5186 -16.5021 60.9982 -17.9817 62.8213 -17.9817 L 62.8213 -23.1194 C 58.1598 -23.1194 54.3809 -19.3405 54.3809 -14.679 Z M 62.8213 -20.5505 L 62.8213 -17.9817 C 64.6445 -17.9817 66.1241 -16.5021 66.1241 -14.679 L 71.2617 -14.679 C 71.2617 -19.3405 67.4828 -23.1194 62.8213 -23.1194 Z"/>
   </g>
  <g id="Ultralight-S" transform="matrix(1 0 0 1 520.721 696)">
    <path class="SFSymbolsPreviewWireframe" d="M 65.0457 -38.1653 C 65.0457 -39.584 63.8956 -40.7341 62.4768 -40.7341 C 61.0581 -40.7341 59.908 -39.584 59.908 -38.1653 Z M 62.4768 -34.8625 C 61.0581 -34.8625 59.908 -33.7124 59.908 -32.2937 C 59.908 -30.875 61.0581 -29.7249 62.4768 -29.7249 Z M 68.3484 -29.7249 C 69.7671 -29.7249 70.9172 -30.875 70.9172 -32.2937 C 70.9172 -33.7124 69.7671 -34.8625 68.3484 -34.8625 Z M 9.9996 -8.8074 C 9.9996 -7.3887 11.1497 -6.2386 12.5684 -6.2386 C 13.9871 -6.2386 15.1372 -7.3887 15.1372 -8.8074 Z M 16.0091 -22.9814 L 17.8234 -21.1671 Z M 41.9263 -26.4221 L 41.9263 -23.8533 Z M 46.6793 -22.5263 C 47.8938 -21.7918 49.4737 -22.1809 50.2082 -23.3953 C 50.9427 -24.6097 50.5536 -26.1897 49.3392 -26.9241 L 48.0093 -24.7252 Z M 62.4768 -38.1653 L 59.908 -38.1653 L 59.908 -20.5505 L 65.0457 -20.5505 L 65.0457 -38.1653 Z M 62.4768 -32.2937 L 62.4768 -29.7249 L 68.3484 -29.7249 L 68.3484 -34.8625 L 62.4768 -34.8625 Z M 12.5684 -8.8074 L 15.1372 -8.8074 L 15.1372 -14.679 L 9.9996 -14.679 L 9.9996 -8.8074 Z M 12.5684 -14.679 L 15.1372 -14.679 C 15.1372 -17.1127 16.106 -19.4467 17.8234 -21.1671 L 16.0091 -22.9814 L 14.1889 -24.8016 C 11.5077 -22.1151 10.002 -18.4745 10.0025 -14.679 Z M 16.0091 -22.9814 L 17.8234 -21.1671 C 19.5452 -22.8861 21.8785 -23.8522 24.3115 -23.8533 L 24.3115 -28.9909 C 20.5162 -28.9891 16.8766 -27.4813 14.1919 -24.7986 Z M 24.3115 -26.4221 L 24.3115 -23.8533 L 41.9263 -23.8533 L 41.9263 -28.9909 L 24.3115 -28.9909 Z M 41.9263 -26.4221 L 41.9263 -23.8533 C 43.5997 -23.8533 45.2437 -23.3953 46.6793 -22.5263 L 48.0093 -24.7252 L 49.3392 -26.9241 C 47.1018 -28.2735 44.5391 -28.988 41.9263 -28.9909 Z M 44.8621 -49.9085 L 42.2933 -49.9085 C 42.2933 -44.8413 38.1832 -40.7341 33.1189 -40.7341 L 33.1189 -35.5965 C 41.0232 -35.5965 47.4309 -42.0042 47.4309 -49.9085 Z M 33.1189 -38.1653 L 33.1189 -40.7341 C 28.0521 -40.7341 23.9446 -44.8416 23.9446 -49.9085 L 18.8069 -49.9085 C 18.8069 -42.0042 25.2146 -35.5965 33.1189 -35.5965 Z M 21.3758 -49.9085 L 23.9446 -49.9085 C 23.9446 -54.9756 28.0547 -59.0828 33.1189 -59.0828 L 33.1189 -64.2204 C 25.2146 -64.2204 18.8069 -57.8127 18.8069 -49.9085 Z M 33.1189 -61.6516 L 33.1189 -59.0828 C 38.1861 -59.0828 42.2933 -54.9727 42.2933 -49.9085 L 47.4309 -49.9085 C 47.4309 -57.8127 41.0232 -64.2204 33.1189 -64.2204 Z M 68.3484 -14.679 L 65.7796 -14.679 C 65.7796 -12.8558 64.3 -11.3762 62.4768 -11.3762 L 62.4768 -6.2386 C 67.1383 -6.2386 70.9172 -10.0175 70.9172 -14.679 Z M 62.4768 -8.8074 L 62.4768 -11.3762 C 60.6528 -11.3762 59.1741 -12.8549 59.1741 -14.679 L 54.0364 -14.679 C 54.0364 -10.0175 57.8153 -6.2386 62.4768 -6.2386 Z M 56.6052 -14.679 L 59.1741 -14.679 C 59.1741 -16.5021 60.6537 -17.9817 62.4768 -17.9817 L 62.4768 -23.1194 C 57.8153 -23.1194 54.0364 -19.3405 54.0364 -14.679 Z M 62.4768 -20.5505 L 62.4768 -17.9817 C 64.3 -17.9817 65.7796 -16.5021 65.7796 -14.679 L 70.9172 -14.679 C 70.9172 -19.3405 67.1383 -23.1194 62.4768 -23.1194 Z"/>
   </g>
 </g>
</svg>
