<svg xmlns="http://www.w3.org/2000/svg" viewBox="0 0 3300 2200"><style>.SFSymbolsPreviewWireframe {fill:none;stroke:#000;stroke-width:.5}</style><g id="Notes"><text id="template-version" transform="translate(3036 1933)">Template v.7.0</text><text id="descriptive-name" style="stroke:none;fill:black;font-family:sans-serif;font-size:13;text-anchor:end;" transform="matrix(1 0 0 1 3036 1969)">Generated from esds-eye-slash</text></g><g id="Guides" fill="none" stroke="#27AAE1" stroke-width=".5"><line id="Baseline-S" x1="263" x2="3036" y1="696" y2="696"/><line id="Capline-S" x1="263" x2="3036" y1="625.541" y2="625.541"/><line id="right-margin-Black-S" x1="2980.67" x2="2980.67" y1="600.785" y2="720.121"/><line id="left-margin-Black-S" x1="2886.13" x2="2886.13" y1="600.785" y2="720.121"/><line id="right-margin-Regular-S" x1="1489.18" x2="1489.18" y1="600.785" y2="720.121"/><line id="left-margin-Regular-S" x1="1410.51" x2="1410.51" y1="600.785" y2="720.121"/><line id="right-margin-Ultralight-S" x1="598.702" x2="598.702" y1="600.785" y2="720.121"/><line id="left-margin-Ultralight-S" x1="520.721" x2="520.721" y1="600.785" y2="720.121"/></g><g id="Symbols"><g id="Black-S" transform="matrix(1 0 0 1 2886.13 696)">
    <path class="SFSymbolsPreviewWireframe" d="M 42.8649 -60.2775 C 41.3223 -60.094 40.2211 -58.6945 40.4047 -57.1523 C 40.5885 -55.6098 41.988 -54.5086 43.5302 -54.6921 L 43.1975 -57.485 L 42.8649 -60.2775 Z M 64.7616 -52.9786 L 63.3381 -50.5528 L 63.3381 -50.5528 L 64.7616 -52.9786 Z M 79.2132 -36.3513 L 81.8499 -37.33 C 81.8383 -37.3612 81.8261 -37.392 81.8136 -37.4229 L 79.2132 -36.3513 Z M 79.2132 -34.1142 L 81.8133 -33.0419 C 81.8261 -33.0727 81.8383 -33.1039 81.8499 -33.1354 L 79.2132 -34.1142 Z M 72.3499 -27.8348 C 71.3978 -26.6076 71.6205 -24.8407 72.8477 -23.8887 C 74.0749 -22.9363 75.8418 -23.1593 76.7939 -24.3865 L 74.5719 -26.1107 L 72.3499 -27.8348 Z M 55.9224 -26.2701 C 57.0397 -27.3491 57.0706 -29.1298 55.9916 -30.2471 C 54.9125 -31.3644 53.1318 -31.3952 52.0146 -30.3162 L 53.9685 -28.2931 L 55.9224 -26.2701 Z M 40.451 -28.4105 L 38.4623 -26.4218 L 38.4623 -26.4218 L 40.451 -28.4105 Z M 42.3567 -39.9741 C 43.4357 -41.0913 43.4049 -42.872 42.2876 -43.9511 C 41.1703 -45.0301 39.3896 -44.9992 38.3106 -43.8819 L 40.3336 -41.928 L 42.3567 -39.9741 Z M 66.3144 -15.1346 C 67.6506 -15.9263 68.0923 -17.6514 67.3006 -18.9876 C 66.5089 -20.324 64.7838 -20.7657 63.4477 -19.974 L 64.8809 -17.5543 L 66.3144 -15.1346 Z M 36.321 -14.5107 L 35.43 -11.8432 L 35.43 -11.8432 L 36.321 -14.5107 Z M 15.3268 -34.1109 L 12.6901 -33.1322 C 12.7017 -33.1007 12.7139 -33.0698 12.7267 -33.0387 L 15.3268 -34.1109 Z M 15.3268 -36.3481 L 12.7267 -37.4203 C 12.7139 -37.3895 12.7017 -37.3583 12.6901 -37.3268 L 15.3268 -36.3481 Z M 31.0541 -50.4612 C 32.3896 -51.2548 32.8287 -52.9805 32.0351 -54.3157 C 31.2415 -55.6513 29.5158 -56.0903 28.1806 -55.2967 L 29.6173 -52.879 L 31.0541 -50.4612 Z M 17.1161 -69.3607 C 16.0178 -70.459 14.2371 -70.459 13.1388 -69.3607 C 12.0405 -68.2624 12.0405 -66.4817 13.1388 -65.3834 L 15.1275 -67.372 L 17.1161 -69.3607 Z M 77.4239 -1.0983 C 78.5222 0 80.3029 0 81.4012 -1.0983 C 82.4995 -2.1966 82.4995 -3.9773 81.4012 -5.0756 L 79.4125 -3.087 L 77.4239 -1.0983 Z M 43.1975 -57.485 L 43.5302 -54.6921 C 50.4078 -55.5118 57.3647 -54.058 63.3381 -50.5528 L 64.7616 -52.9786 L 66.1849 -55.4041 C 59.1521 -59.5309 50.9619 -61.2428 42.8649 -60.2775 L 43.1975 -57.485 Z M 64.7616 -52.9786 L 63.3381 -50.5528 C 69.3117 -47.0473 73.974 -41.6834 76.6129 -35.2796 L 79.2132 -36.3513 L 81.8136 -37.4229 C 78.7067 -44.9619 73.2177 -51.2773 66.1849 -55.4041 L 64.7616 -52.9786 Z M 79.2132 -36.3513 L 76.5766 -35.3725 C 76.61 -35.2822 76.61 -35.1832 76.5766 -35.0929 L 79.2132 -34.1142 L 81.8499 -33.1354 C 82.3523 -34.4886 82.3523 -35.9768 81.8499 -37.33 L 79.2132 -36.3513 Z M 79.2132 -34.1142 L 76.6132 -35.1864 C 75.5281 -32.5559 74.0942 -30.0832 72.3499 -27.8348 L 74.5719 -26.1107 L 76.7939 -24.3865 C 78.8475 -27.0335 80.5359 -29.9446 81.8133 -33.0419 L 79.2132 -34.1142 Z M 53.9685 -28.2931 L 52.0146 -30.3162 C 50.7266 -29.072 49.0012 -28.3835 47.2102 -28.3989 L 47.1858 -25.5867 L 47.1614 -22.7743 C 50.427 -22.746 53.5732 -24.0015 55.9224 -26.2701 L 53.9685 -28.2931 Z M 47.1858 -25.5867 L 47.2102 -28.3989 C 45.4192 -28.4146 43.7064 -29.133 42.4399 -30.3994 L 40.451 -28.4105 L 38.4623 -26.4218 C 40.7717 -24.1127 43.8957 -22.8026 47.1614 -22.7743 L 47.1858 -25.5867 Z M 40.451 -28.4105 L 42.4399 -30.3994 C 41.1735 -31.6659 40.4551 -33.3787 40.4394 -35.1697 L 37.6272 -35.1453 L 34.8148 -35.1209 C 34.8431 -31.8552 36.1532 -28.7312 38.4623 -26.4218 L 40.451 -28.4105 Z M 37.6272 -35.1453 L 40.4394 -35.1697 C 40.424 -36.9607 41.1125 -38.6861 42.3567 -39.9741 L 40.3336 -41.928 L 38.3106 -43.8819 C 36.042 -41.5327 34.7865 -38.3865 34.8148 -35.1209 L 37.6272 -35.1453 Z M 64.8809 -17.5543 L 63.4477 -19.974 C 59.5308 -17.654 55.161 -16.2037 50.634 -15.7212 L 50.9323 -12.9245 L 51.2303 -10.1278 C 56.5592 -10.6957 61.7036 -12.4032 66.3144 -15.1346 L 64.8809 -17.5543 Z M 50.9323 -12.9245 L 50.634 -15.7212 C 46.1074 -15.2388 41.53 -15.7357 37.2123 -17.1783 L 36.321 -14.5107 L 35.43 -11.8432 C 40.5127 -10.1451 45.9014 -9.5602 51.2303 -10.1278 L 50.9323 -12.9245 Z M 36.321 -14.5107 L 37.2123 -17.1783 C 32.8946 -18.6208 28.9378 -20.9753 25.6101 -24.0818 L 23.6909 -22.0263 L 21.7717 -19.9705 C 25.6889 -16.3133 30.347 -13.5416 35.43 -11.8432 L 36.321 -14.5107 Z M 23.6909 -22.0263 L 25.6101 -24.0818 C 22.2827 -27.1884 19.6621 -30.9745 17.9268 -35.1832 L 15.3268 -34.1109 L 12.7267 -33.0387 C 14.7697 -28.0845 17.8544 -23.6273 21.7717 -19.9705 L 23.6909 -22.0263 Z M 15.3268 -34.1109 L 17.9634 -35.0897 C 17.93 -35.18 17.93 -35.279 17.9634 -35.3693 L 15.3268 -36.3481 L 12.6901 -37.3268 C 12.1877 -35.9736 12.1877 -34.4854 12.6901 -33.1322 L 15.3268 -34.1109 Z M 15.3268 -36.3481 L 17.9268 -35.2758 C 20.5448 -41.6246 25.1508 -46.9528 31.0541 -50.4612 L 29.6173 -52.879 L 28.1806 -55.2967 C 21.231 -51.1664 15.8086 -44.8938 12.7267 -37.4203 L 15.3268 -36.3481 Z M 15.1275 -67.372 L 13.1388 -65.3834 L 77.4239 -1.0983 L 79.4125 -3.087 L 81.4012 -5.0756 L 17.1161 -69.3607 L 15.1275 -67.372 Z"/>
   </g><g id="Regular-S" transform="matrix(1 0 0 1 1410.51 696)">
    <path class="SFSymbolsPreviewWireframe" d="M 34.9299 -60.2775 C 33.3873 -60.094 32.2861 -58.6945 32.4697 -57.1523 C 32.6535 -55.6098 34.053 -54.5086 35.5952 -54.6921 L 35.2625 -57.485 L 34.9299 -60.2775 Z M 56.8266 -52.9786 L 55.4031 -50.5528 L 55.4031 -50.5528 L 56.8266 -52.9786 Z M 71.2782 -36.3513 L 73.9149 -37.33 C 73.9033 -37.3612 73.8911 -37.392 73.8786 -37.4229 L 71.2782 -36.3513 Z M 71.2782 -34.1142 L 73.8783 -33.0419 C 73.8911 -33.0727 73.9033 -33.1039 73.9149 -33.1354 L 71.2782 -34.1142 Z M 64.4149 -27.8348 C 63.4628 -26.6076 63.6855 -24.8407 64.9127 -23.8887 C 66.1399 -22.9363 67.9068 -23.1593 68.8589 -24.3865 L 66.6369 -26.1107 L 64.4149 -27.8348 Z M 47.9874 -26.2701 C 49.1047 -27.3491 49.1356 -29.1298 48.0566 -30.2471 C 46.9775 -31.3644 45.1968 -31.3952 44.0796 -30.3162 L 46.0335 -28.2931 L 47.9874 -26.2701 Z M 32.516 -28.4105 L 30.5273 -26.4218 L 30.5273 -26.4218 L 32.516 -28.4105 Z M 34.4217 -39.9741 C 35.5007 -41.0913 35.4699 -42.872 34.3526 -43.9511 C 33.2353 -45.0301 31.4546 -44.9992 30.3756 -43.8819 L 32.3986 -41.928 L 34.4217 -39.9741 Z M 58.3794 -15.1346 C 59.7156 -15.9263 60.1573 -17.6514 59.3656 -18.9876 C 58.5739 -20.324 56.8488 -20.7657 55.5127 -19.974 L 56.9459 -17.5543 L 58.3794 -15.1346 Z M 28.386 -14.5107 L 27.495 -11.8432 L 27.495 -11.8432 L 28.386 -14.5107 Z M 7.3918 -34.1109 L 4.7551 -33.1322 C 4.7667 -33.1007 4.7789 -33.0698 4.7917 -33.0387 L 7.3918 -34.1109 Z M 7.3918 -36.3481 L 4.7917 -37.4203 C 4.7789 -37.3895 4.7667 -37.3583 4.7551 -37.3268 L 7.3918 -36.3481 Z M 23.1191 -50.4612 C 24.4546 -51.2548 24.8937 -52.9805 24.1001 -54.3157 C 23.3065 -55.6513 21.5808 -56.0903 20.2456 -55.2967 L 21.6823 -52.879 L 23.1191 -50.4612 Z M 9.1811 -69.3607 C 8.0828 -70.459 6.3021 -70.459 5.2038 -69.3607 C 4.1055 -68.2624 4.1055 -66.4817 5.2038 -65.3834 L 7.1925 -67.372 L 9.1811 -69.3607 Z M 69.4889 -1.0983 C 70.5872 0 72.3679 0 73.4662 -1.0983 C 74.5645 -2.1966 74.5645 -3.9773 73.4662 -5.0756 L 71.4775 -3.087 L 69.4889 -1.0983 Z M 35.2625 -57.485 L 35.5952 -54.6921 C 42.4728 -55.5118 49.4297 -54.058 55.4031 -50.5528 L 56.8266 -52.9786 L 58.2499 -55.4041 C 51.2171 -59.5309 43.0269 -61.2428 34.9299 -60.2775 L 35.2625 -57.485 Z M 56.8266 -52.9786 L 55.4031 -50.5528 C 61.3767 -47.0473 66.039 -41.6834 68.6779 -35.2796 L 71.2782 -36.3513 L 73.8786 -37.4229 C 70.7717 -44.9619 65.2827 -51.2773 58.2499 -55.4041 L 56.8266 -52.9786 Z M 71.2782 -36.3513 L 68.6416 -35.3725 C 68.675 -35.2822 68.675 -35.1832 68.6416 -35.0929 L 71.2782 -34.1142 L 73.9149 -33.1354 C 74.4173 -34.4886 74.4173 -35.9768 73.9149 -37.33 L 71.2782 -36.3513 Z M 71.2782 -34.1142 L 68.6782 -35.1864 C 67.5931 -32.5559 66.1592 -30.0832 64.4149 -27.8348 L 66.6369 -26.1107 L 68.8589 -24.3865 C 70.9125 -27.0335 72.6009 -29.9446 73.8783 -33.0419 L 71.2782 -34.1142 Z M 46.0335 -28.2931 L 44.0796 -30.3162 C 42.7916 -29.072 41.0662 -28.3835 39.2752 -28.3989 L 39.2508 -25.5867 L 39.2264 -22.7743 C 42.492 -22.746 45.6382 -24.0015 47.9874 -26.2701 L 46.0335 -28.2931 Z M 39.2508 -25.5867 L 39.2752 -28.3989 C 37.4842 -28.4146 35.7714 -29.133 34.5049 -30.3994 L 32.516 -28.4105 L 30.5273 -26.4218 C 32.8367 -24.1127 35.9607 -22.8026 39.2264 -22.7743 L 39.2508 -25.5867 Z M 32.516 -28.4105 L 34.5049 -30.3994 C 33.2385 -31.6659 32.5201 -33.3787 32.5044 -35.1697 L 29.6922 -35.1453 L 26.8798 -35.1209 C 26.9081 -31.8552 28.2182 -28.7312 30.5273 -26.4218 L 32.516 -28.4105 Z M 29.6922 -35.1453 L 32.5044 -35.1697 C 32.489 -36.9607 33.1775 -38.6861 34.4217 -39.9741 L 32.3986 -41.928 L 30.3756 -43.8819 C 28.107 -41.5327 26.8515 -38.3865 26.8798 -35.1209 L 29.6922 -35.1453 Z M 56.9459 -17.5543 L 55.5127 -19.974 C 51.5958 -17.654 47.226 -16.2037 42.699 -15.7212 L 42.9973 -12.9245 L 43.2953 -10.1278 C 48.6242 -10.6957 53.7686 -12.4032 58.3794 -15.1346 L 56.9459 -17.5543 Z M 42.9973 -12.9245 L 42.699 -15.7212 C 38.1724 -15.2388 33.595 -15.7357 29.2773 -17.1783 L 28.386 -14.5107 L 27.495 -11.8432 C 32.5777 -10.1451 37.9664 -9.5602 43.2953 -10.1278 L 42.9973 -12.9245 Z M 28.386 -14.5107 L 29.2773 -17.1783 C 24.9596 -18.6208 21.0028 -20.9753 17.6751 -24.0818 L 15.7559 -22.0263 L 13.8367 -19.9705 C 17.7539 -16.3133 22.412 -13.5416 27.495 -11.8432 L 28.386 -14.5107 Z M 15.7559 -22.0263 L 17.6751 -24.0818 C 14.3477 -27.1884 11.7271 -30.9745 9.9918 -35.1832 L 7.3918 -34.1109 L 4.7917 -33.0387 C 6.8347 -28.0845 9.9194 -23.6273 13.8367 -19.9705 L 15.7559 -22.0263 Z M 7.3918 -34.1109 L 10.0284 -35.0897 C 9.995 -35.18 9.995 -35.279 10.0284 -35.3693 L 7.3918 -36.3481 L 4.7551 -37.3268 C 4.2527 -35.9736 4.2527 -34.4854 4.7551 -33.1322 L 7.3918 -34.1109 Z M 7.3918 -36.3481 L 9.9918 -35.2758 C 12.6098 -41.6246 17.2158 -46.9528 23.1191 -50.4612 L 21.6823 -52.879 L 20.2456 -55.2967 C 13.296 -51.1664 7.8736 -44.8938 4.7917 -37.4203 L 7.3918 -36.3481 Z M 7.1925 -67.372 L 5.2038 -65.3834 L 69.4889 -1.0983 L 71.4775 -3.087 L 73.4662 -5.0756 L 9.1811 -69.3607 L 7.1925 -67.372 Z"/>
   </g><g id="Ultralight-S" transform="matrix(1 0 0 1 520.721 696)">
    <path class="SFSymbolsPreviewWireframe" d="M 34.5854 -60.2775 C 33.0428 -60.094 31.9416 -58.6945 32.1252 -57.1523 C 32.309 -55.6098 33.7085 -54.5086 35.2507 -54.6921 L 34.918 -57.485 L 34.5854 -60.2775 Z M 56.4821 -52.9786 L 55.0586 -50.5528 L 55.0586 -50.5528 L 56.4821 -52.9786 Z M 70.9337 -36.3513 L 73.5704 -37.33 C 73.5588 -37.3612 73.5466 -37.392 73.5341 -37.4229 L 70.9337 -36.3513 Z M 70.9337 -34.1142 L 73.5338 -33.0419 C 73.5466 -33.0727 73.5588 -33.1039 73.5704 -33.1354 L 70.9337 -34.1142 Z M 64.0704 -27.8348 C 63.1183 -26.6076 63.341 -24.8407 64.5682 -23.8887 C 65.7954 -22.9363 67.5623 -23.1593 68.5144 -24.3865 L 66.2924 -26.1107 L 64.0704 -27.8348 Z M 47.6429 -26.2701 C 48.7602 -27.3491 48.7911 -29.1298 47.7121 -30.2471 C 46.633 -31.3644 44.8523 -31.3952 43.7351 -30.3162 L 45.689 -28.2931 L 47.6429 -26.2701 Z M 32.1715 -28.4105 L 30.1828 -26.4218 L 30.1828 -26.4218 L 32.1715 -28.4105 Z M 34.0772 -39.9741 C 35.1562 -41.0913 35.1254 -42.872 34.0081 -43.9511 C 32.8908 -45.0301 31.1101 -44.9992 30.0311 -43.8819 L 32.0541 -41.928 L 34.0772 -39.9741 Z M 58.0349 -15.1346 C 59.3711 -15.9263 59.8128 -17.6514 59.0211 -18.9876 C 58.2294 -20.324 56.5043 -20.7657 55.1682 -19.974 L 56.6014 -17.5543 L 58.0349 -15.1346 Z M 28.0415 -14.5107 L 27.1505 -11.8432 L 27.1505 -11.8432 L 28.0415 -14.5107 Z M 7.0473 -34.1109 L 4.4106 -33.1322 C 4.4222 -33.1007 4.4344 -33.0698 4.4472 -33.0387 L 7.0473 -34.1109 Z M 7.0473 -36.3481 L 4.4472 -37.4203 C 4.4344 -37.3895 4.4222 -37.3583 4.4106 -37.3268 L 7.0473 -36.3481 Z M 22.7746 -50.4612 C 24.1101 -51.2548 24.5492 -52.9805 23.7556 -54.3157 C 22.962 -55.6513 21.2363 -56.0903 19.9011 -55.2967 L 21.3378 -52.879 L 22.7746 -50.4612 Z M 8.8366 -69.3607 C 7.7383 -70.459 5.9576 -70.459 4.8593 -69.3607 C 3.761 -68.2624 3.761 -66.4817 4.8593 -65.3834 L 6.848 -67.372 L 8.8366 -69.3607 Z M 69.1444 -1.0983 C 70.2427 0 72.0234 0 73.1217 -1.0983 C 74.22 -2.1966 74.22 -3.9773 73.1217 -5.0756 L 71.133 -3.087 L 69.1444 -1.0983 Z M 34.918 -57.485 L 35.2507 -54.6921 C 42.1283 -55.5118 49.0852 -54.058 55.0586 -50.5528 L 56.4821 -52.9786 L 57.9054 -55.4041 C 50.8726 -59.5309 42.6824 -61.2428 34.5854 -60.2775 L 34.918 -57.485 Z M 56.4821 -52.9786 L 55.0586 -50.5528 C 61.0322 -47.0473 65.6945 -41.6834 68.3334 -35.2796 L 70.9337 -36.3513 L 73.5341 -37.4229 C 70.4272 -44.9619 64.9382 -51.2773 57.9054 -55.4041 L 56.4821 -52.9786 Z M 70.9337 -36.3513 L 68.2971 -35.3725 C 68.3305 -35.2822 68.3305 -35.1832 68.2971 -35.0929 L 70.9337 -34.1142 L 73.5704 -33.1354 C 74.0728 -34.4886 74.0728 -35.9768 73.5704 -37.33 L 70.9337 -36.3513 Z M 70.9337 -34.1142 L 68.3337 -35.1864 C 67.2486 -32.5559 65.8147 -30.0832 64.0704 -27.8348 L 66.2924 -26.1107 L 68.5144 -24.3865 C 70.568 -27.0335 72.2564 -29.9446 73.5338 -33.0419 L 70.9337 -34.1142 Z M 45.689 -28.2931 L 43.7351 -30.3162 C 42.4471 -29.072 40.7217 -28.3835 38.9307 -28.3989 L 38.9063 -25.5867 L 38.8819 -22.7743 C 42.1475 -22.746 45.2937 -24.0015 47.6429 -26.2701 L 45.689 -28.2931 Z M 38.9063 -25.5867 L 38.9307 -28.3989 C 37.1397 -28.4146 35.4269 -29.133 34.1604 -30.3994 L 32.1715 -28.4105 L 30.1828 -26.4218 C 32.4922 -24.1127 35.6162 -22.8026 38.8819 -22.7743 L 38.9063 -25.5867 Z M 32.1715 -28.4105 L 34.1604 -30.3994 C 32.894 -31.6659 32.1756 -33.3787 32.1599 -35.1697 L 29.3477 -35.1453 L 26.5353 -35.1209 C 26.5636 -31.8552 27.8737 -28.7312 30.1828 -26.4218 L 32.1715 -28.4105 Z M 29.3477 -35.1453 L 32.1599 -35.1697 C 32.1445 -36.9607 32.833 -38.6861 34.0772 -39.9741 L 32.0541 -41.928 L 30.0311 -43.8819 C 27.7625 -41.5327 26.507 -38.3865 26.5353 -35.1209 L 29.3477 -35.1453 Z M 56.6014 -17.5543 L 55.1682 -19.974 C 51.2513 -17.654 46.8815 -16.2037 42.3545 -15.7212 L 42.6528 -12.9245 L 42.9508 -10.1278 C 48.2797 -10.6957 53.4241 -12.4032 58.0349 -15.1346 L 56.6014 -17.5543 Z M 42.6528 -12.9245 L 42.3545 -15.7212 C 37.8279 -15.2388 33.2505 -15.7357 28.9328 -17.1783 L 28.0415 -14.5107 L 27.1505 -11.8432 C 32.2332 -10.1451 37.6219 -9.5602 42.9508 -10.1278 L 42.6528 -12.9245 Z M 28.0415 -14.5107 L 28.9328 -17.1783 C 24.6151 -18.6208 20.6583 -20.9753 17.3306 -24.0818 L 15.4114 -22.0263 L 13.4922 -19.9705 C 17.4094 -16.3133 22.0675 -13.5416 27.1505 -11.8432 L 28.0415 -14.5107 Z M 15.4114 -22.0263 L 17.3306 -24.0818 C 14.0032 -27.1884 11.3826 -30.9745 9.6473 -35.1832 L 7.0473 -34.1109 L 4.4472 -33.0387 C 6.4902 -28.0845 9.5749 -23.6273 13.4922 -19.9705 L 15.4114 -22.0263 Z M 7.0473 -34.1109 L 9.6839 -35.0897 C 9.6505 -35.18 9.6505 -35.279 9.6839 -35.3693 L 7.0473 -36.3481 L 4.4106 -37.3268 C 3.9082 -35.9736 3.9082 -34.4854 4.4106 -33.1322 L 7.0473 -34.1109 Z M 7.0473 -36.3481 L 9.6473 -35.2758 C 12.2653 -41.6246 16.8713 -46.9528 22.7746 -50.4612 L 21.3378 -52.879 L 19.9011 -55.2967 C 12.9515 -51.1664 7.5291 -44.8938 4.4472 -37.4203 L 7.0473 -36.3481 Z M 6.848 -67.372 L 4.8593 -65.3834 L 69.1444 -1.0983 L 71.133 -3.087 L 73.1217 -5.0756 L 8.8366 -69.3607 L 6.848 -67.372 Z"/>
   </g></g></svg>