<?xml version="1.0" encoding="UTF-8"?>
<!--Generator: Apple Native CoreSVG 341-->
<!DOCTYPE svg
PUBLIC "-//W3C//DTD SVG 1.1//EN"
       "http://www.w3.org/Graphics/SVG/1.1/DTD/svg11.dtd">
<svg version="1.1" xmlns="http://www.w3.org/2000/svg" xmlns:xlink="http://www.w3.org/1999/xlink" viewBox="0 0 3300 2200">
 <!--symbol: "symbol", point size: 100.0, font version: "22.0d4e4", template writer version: "138.0.0"-->
 <style>.SFSymbolsPreviewWireframe {fill:none;opacity:1.0;stroke:black;stroke-width:0.5}
</style>
 <g id="Notes">
  <rect height="2200" id="artboard" style="fill:white;opacity:1" width="3300" x="0" y="0"/>
  <line style="fill:none;stroke:black;opacity:1;stroke-width:0.5;" x1="263" x2="3036" y1="292" y2="292"/>
  <text style="stroke:none;fill:black;font-family:sans-serif;font-size:13;font-weight:bold;" transform="matrix(1 0 0 1 263 322)">Weight/Scale Variations</text>
  <text style="stroke:none;fill:black;font-family:sans-serif;font-size:13;text-anchor:middle;" transform="matrix(1 0 0 1 559.711 322)">Ultralight</text>
  <text style="stroke:none;fill:black;font-family:sans-serif;font-size:13;text-anchor:middle;" transform="matrix(1 0 0 1 856.422 322)">Thin</text>
  <text style="stroke:none;fill:black;font-family:sans-serif;font-size:13;text-anchor:middle;" transform="matrix(1 0 0 1 1153.13 322)">Light</text>
  <text style="stroke:none;fill:black;font-family:sans-serif;font-size:13;text-anchor:middle;" transform="matrix(1 0 0 1 1449.84 322)">Regular</text>
  <text style="stroke:none;fill:black;font-family:sans-serif;font-size:13;text-anchor:middle;" transform="matrix(1 0 0 1 1746.56 322)">Medium</text>
  <text style="stroke:none;fill:black;font-family:sans-serif;font-size:13;text-anchor:middle;" transform="matrix(1 0 0 1 2043.27 322)">Semibold</text>
  <text style="stroke:none;fill:black;font-family:sans-serif;font-size:13;text-anchor:middle;" transform="matrix(1 0 0 1 2339.98 322)">Bold</text>
  <text style="stroke:none;fill:black;font-family:sans-serif;font-size:13;text-anchor:middle;" transform="matrix(1 0 0 1 2636.69 322)">Heavy</text>
  <text style="stroke:none;fill:black;font-family:sans-serif;font-size:13;text-anchor:middle;" transform="matrix(1 0 0 1 2933.4 322)">Black</text>
  <line style="fill:none;stroke:black;opacity:1;stroke-width:0.5;" x1="263" x2="3036" y1="1903" y2="1903"/>
  <g transform="matrix(0.2 0 0 0.2 263 1933)">
   <path d="m46.2402 4.15039c21.7773 0 39.4531-17.627 39.4531-39.4043s-17.6758-39.4043-39.4531-39.4043c-21.7285 0-39.4043 17.627-39.4043 39.4043s17.6758 39.4043 39.4043 39.4043Zm0-7.42188c-17.6758 0-31.9336-14.3066-31.9336-31.9824s14.2578-31.9824 31.9336-31.9824 31.9824 14.3066 31.9824 31.9824-14.3066 31.9824-31.9824 31.9824Zm3.61328-17.7734v-28.4668c0-2.24609-1.46484-3.75977-3.71094-3.75977-2.14844 0-3.61328 1.51367-3.61328 3.75977v28.4668c0 2.19727 1.46484 3.71094 3.61328 3.71094 2.24609 0 3.71094-1.51367 3.71094-3.71094Zm-17.8223-10.5957h28.418c2.19727 0 3.71094-1.46484 3.71094-3.61328 0-2.19727-1.51367-3.71094-3.71094-3.71094h-28.418c-2.24609 0-3.75977 1.51367-3.75977 3.71094 0 2.14844 1.51367 3.61328 3.75977 3.61328Z"/>
  </g>
  <g transform="matrix(0.2 0 0 0.2 281.506 1933)">
   <path d="m58.5449 14.5508c27.4902 0 49.8047-22.3145 49.8047-49.8047s-22.3145-49.8047-49.8047-49.8047-49.8047 22.3145-49.8047 49.8047 22.3145 49.8047 49.8047 49.8047Zm0-8.30078c-22.9492 0-41.5039-18.5547-41.5039-41.5039s18.5547-41.5039 41.5039-41.5039 41.5039 18.5547 41.5039 41.5039-18.5547 41.5039-41.5039 41.5039Zm4.05273-23.0957v-36.9141c0-2.49023-1.70898-4.19922-4.15039-4.19922-2.39258 0-4.05273 1.70898-4.05273 4.19922v36.9141c0 2.44141 1.66016 4.15039 4.05273 4.15039 2.44141 0 4.15039-1.66016 4.15039-4.15039Zm-22.5586-14.4043h36.9629c2.44141 0 4.15039-1.61133 4.15039-4.00391 0-2.44141-1.70898-4.15039-4.15039-4.15039h-36.9629c-2.49023 0-4.15039 1.70898-4.15039 4.15039 0 2.39258 1.66016 4.00391 4.15039 4.00391Z"/>
  </g>
  <g transform="matrix(0.2 0 0 0.2 304.924 1933)">
   <path d="m74.8535 28.3203c35.1074 0 63.623-28.4668 63.623-63.5742s-28.5156-63.623-63.623-63.623-63.5742 28.5156-63.5742 63.623 28.4668 63.5742 63.5742 63.5742Zm0-9.08203c-30.127 0-54.4922-24.3652-54.4922-54.4922s24.3652-54.4922 54.4922-54.4922 54.4922 24.3652 54.4922 54.4922-24.3652 54.4922-54.4922 54.4922Zm4.44336-30.3223v-48.4863c0-2.73438-1.85547-4.63867-4.54102-4.63867-2.58789 0-4.44336 1.9043-4.44336 4.63867v48.4863c0 2.68555 1.85547 4.58984 4.44336 4.58984 2.68555 0 4.54102-1.85547 4.54102-4.58984Zm-28.7109-19.7754h48.4863c2.68555 0 4.58984-1.80664 4.58984-4.39453 0-2.73438-1.85547-4.58984-4.58984-4.58984h-48.4863c-2.73438 0-4.58984 1.85547-4.58984 4.58984 0 2.58789 1.85547 4.39453 4.58984 4.39453Z"/>
  </g>
  <text style="stroke:none;fill:black;font-family:sans-serif;font-size:13;font-weight:bold;" transform="matrix(1 0 0 1 263 1953)">Design Variations</text>
  <text style="stroke:none;fill:black;font-family:sans-serif;font-size:13;" transform="matrix(1 0 0 1 263 1971)">Symbols are supported in up to nine weights and three scales.</text>
  <text style="stroke:none;fill:black;font-family:sans-serif;font-size:13;" transform="matrix(1 0 0 1 263 1989)">For optimal layout with text and other symbols, vertically align</text>
  <text style="stroke:none;fill:black;font-family:sans-serif;font-size:13;" transform="matrix(1 0 0 1 263 2007)">symbols with the adjacent text.</text>
  <line style="fill:none;stroke:#00AEEF;stroke-width:0.5;opacity:1.0;" x1="776" x2="776" y1="1919" y2="1933"/>
  <g transform="matrix(0.2 0 0 0.2 776 1933)">
   <path d="m16.5527 0.78125c2.58789 0 3.85742-0.976562 4.78516-3.71094l20.5566-57.5195h0.244141l20.6055 57.5195c0.927734 2.73438 2.19727 3.71094 4.73633 3.71094 2.58789 0 4.24805-1.5625 4.24805-4.00391 0-0.830078-0.146484-1.61133-0.537109-2.63672l-22.9004-60.9863c-1.12305-2.97852-3.125-4.49219-6.25-4.49219-3.02734 0-5.07812 1.46484-6.15234 4.44336l-22.9004 61.084c-0.390625 1.02539-0.537109 1.80664-0.537109 2.63672 0 2.44141 1.5625 3.95508 4.10156 3.95508Zm10.2051-20.9473h30.6641c2.00195 0 3.66211-1.66016 3.66211-3.66211 0-2.05078-1.66016-3.66211-3.66211-3.66211h-30.6641c-2.00195 0-3.66211 1.61133-3.66211 3.66211 0 2.00195 1.66016 3.66211 3.66211 3.66211Z"/>
  </g>
  <line style="fill:none;stroke:#00AEEF;stroke-width:0.5;opacity:1.0;" x1="792.836" x2="792.836" y1="1919" y2="1933"/>
  <text style="stroke:none;fill:black;font-family:sans-serif;font-size:13;font-weight:bold;" transform="matrix(1 0 0 1 776 1953)">Margins</text>
  <text style="stroke:none;fill:black;font-family:sans-serif;font-size:13;" transform="matrix(1 0 0 1 776 1971)">Leading and trailing margins on the left and right side of each symbol</text>
  <text style="stroke:none;fill:black;font-family:sans-serif;font-size:13;" transform="matrix(1 0 0 1 776 1989)">can be adjusted by modifying the x-location of the margin guidelines.</text>
  <text style="stroke:none;fill:black;font-family:sans-serif;font-size:13;" transform="matrix(1 0 0 1 776 2007)">Modifications are automatically applied proportionally to all</text>
  <text style="stroke:none;fill:black;font-family:sans-serif;font-size:13;" transform="matrix(1 0 0 1 776 2025)">scales and weights.</text>
  <g transform="matrix(0.2 0 0 0.2 1289 1933)">
   <path d="m14.209 13.1348 7.86133 7.86133c4.29688 4.39453 9.32617 4.10156 13.8672-1.02539l60.6934-68.2129-4.88281-4.88281-60.2539 67.6758c-1.80664 1.95312-3.4668 2.44141-5.81055 0.0976562l-5.17578-5.12695c-2.29492-2.29492-1.80664-3.95508 0.195312-5.81055l67.4805-62.1582-4.88281-4.83398-68.0664 62.5977c-4.98047 4.58984-5.32227 9.47266-1.02539 13.8184Zm44.873-97.4609c-2.05078 2.00195-2.24609 4.88281-1.07422 6.78711 1.12305 1.80664 3.4668 3.02734 6.5918 2.24609 5.85938-1.66016 12.5977-2.39258 18.8965 0.927734l-2.68555 7.12891c-1.61133 4.00391-0.732422 6.88477 1.70898 9.42383l10.2539 10.3027c2.34375 2.39258 4.54102 2.44141 7.08008 1.95312l4.44336-0.732422 2.58789 2.53906-0.195312 2.24609c-0.0976562 2.29492 0.537109 4.29688 2.7832 6.49414l3.36914 3.32031c2.29492 2.29492 5.51758 2.49023 7.8125 0.195312l12.9883-13.0371c2.29492-2.34375 2.14844-5.37109-0.195312-7.66602l-3.41797-3.41797c-2.19727-2.19727-4.05273-3.02734-6.34766-2.88086l-2.34375 0.244141-2.44141-2.44141 1.02539-4.6875c0.634766-2.73438-0.244141-4.98047-2.88086-7.61719l-11.2793-11.1816c-12.9395-12.8418-35.5957-11.0352-46.6797-0.146484Zm7.08008 2.05078c8.78906-6.39648 25.9766-5.66406 33.6914 1.95312l12.3047 12.207c1.02539 1.02539 1.2207 1.80664 0.927734 3.32031l-1.46484 6.64062 6.73828 6.68945 4.39453-0.244141c1.12305-0.0488281 1.51367 0.0488281 2.34375 0.878906l2.53906 2.49023-10.8398 10.8398-2.49023-2.49023c-0.830078-0.878906-0.976562-1.2207-0.927734-2.39258l0.292969-4.3457-6.68945-6.73828-6.83594 1.17188c-1.41602 0.292969-2.05078 0.195312-3.17383-0.878906l-8.93555-8.88672c-1.07422-1.02539-1.17188-1.70898-0.488281-3.36914l4.58984-11.4746c-6.10352-6.34766-17.041-7.51953-25.5859-4.58984-0.683594 0.244141-0.927734-0.390625-0.390625-0.78125Z"/>
  </g>
  <text style="stroke:none;fill:black;font-family:sans-serif;font-size:13;font-weight:bold;" transform="matrix(1 0 0 1 1289 1953)">Exporting</text>
  <text style="stroke:none;fill:black;font-family:sans-serif;font-size:13;" transform="matrix(1 0 0 1 1289 1971)">Symbols should be outlined when exporting to ensure the</text>
  <text style="stroke:none;fill:black;font-family:sans-serif;font-size:13;" transform="matrix(1 0 0 1 1289 1989)">design is preserved when submitting to Xcode.</text>
  <text id="template-version" style="stroke:none;fill:black;font-family:sans-serif;font-size:13;text-anchor:end;" transform="matrix(1 0 0 1 3036 1933)">Template v.7.0</text>
  <text style="stroke:none;fill:black;font-family:sans-serif;font-size:13;text-anchor:end;" transform="matrix(1 0 0 1 3036 1951)">Requires Xcode 26 or greater</text>
  <text id="descriptive-name" style="stroke:none;fill:black;font-family:sans-serif;font-size:13;text-anchor:end;" transform="matrix(1 0 0 1 3036 1969)">Generated from arrows-two-diagonal-in</text>
  <text style="stroke:none;fill:black;font-family:sans-serif;font-size:13;text-anchor:end;" transform="matrix(1 0 0 1 3036 1987)">Typeset at 100.0 points</text>
  <text style="stroke:none;fill:black;font-family:sans-serif;font-size:13;" transform="matrix(1 0 0 1 263 726)">Small</text>
  <text style="stroke:none;fill:black;font-family:sans-serif;font-size:13;" transform="matrix(1 0 0 1 263 1156)">Medium</text>
  <text style="stroke:none;fill:black;font-family:sans-serif;font-size:13;" transform="matrix(1 0 0 1 263 1586)">Large</text>
 </g>
 <g id="Guides">
  <g id="H-reference" style="fill:#27AAE1;stroke:none;" transform="matrix(1 0 0 1 339 696)">
   <path d="M0.993654 0L3.63775 0L29.3281-67.1323L30.0303-67.1323L30.0303-70.459L28.1226-70.459ZM11.6885-24.4799L46.9815-24.4799L46.2315-26.7285L12.4385-26.7285ZM55.1196 0L57.7637 0L30.6382-70.459L29.4326-70.459L29.4326-67.1323Z"/>
  </g>
  <line id="Baseline-S" style="fill:none;stroke:#27AAE1;opacity:1;stroke-width:0.5;" x1="263" x2="3036" y1="696" y2="696"/>
  <line id="Capline-S" style="fill:none;stroke:#27AAE1;opacity:1;stroke-width:0.5;" x1="263" x2="3036" y1="625.541" y2="625.541"/>
  <g id="H-reference" style="fill:#27AAE1;stroke:none;" transform="matrix(1 0 0 1 339 1126)">
   <path d="M0.993654 0L3.63775 0L29.3281-67.1323L30.0303-67.1323L30.0303-70.459L28.1226-70.459ZM11.6885-24.4799L46.9815-24.4799L46.2315-26.7285L12.4385-26.7285ZM55.1196 0L57.7637 0L30.6382-70.459L29.4326-70.459L29.4326-67.1323Z"/>
  </g>
  <line id="Baseline-M" style="fill:none;stroke:#27AAE1;opacity:1;stroke-width:0.5;" x1="263" x2="3036" y1="1126" y2="1126"/>
  <line id="Capline-M" style="fill:none;stroke:#27AAE1;opacity:1;stroke-width:0.5;" x1="263" x2="3036" y1="1055.54" y2="1055.54"/>
  <g id="H-reference" style="fill:#27AAE1;stroke:none;" transform="matrix(1 0 0 1 339 1556)">
   <path d="M0.993654 0L3.63775 0L29.3281-67.1323L30.0303-67.1323L30.0303-70.459L28.1226-70.459ZM11.6885-24.4799L46.9815-24.4799L46.2315-26.7285L12.4385-26.7285ZM55.1196 0L57.7637 0L30.6382-70.459L29.4326-70.459L29.4326-67.1323Z"/>
  </g>
  <line id="Baseline-L" style="fill:none;stroke:#27AAE1;opacity:1;stroke-width:0.5;" x1="263" x2="3036" y1="1556" y2="1556"/>
  <line id="Capline-L" style="fill:none;stroke:#27AAE1;opacity:1;stroke-width:0.5;" x1="263" x2="3036" y1="1485.54" y2="1485.54"/>
  <line id="right-margin-Black-S" style="fill:none;stroke:#00AEEF;stroke-width:0.5;opacity:1.0;" x1="2980.67" x2="2980.67" y1="600.785" y2="720.121"/>
  <line id="left-margin-Black-S" style="fill:none;stroke:#00AEEF;stroke-width:0.5;opacity:1.0;" x1="2886.13" x2="2886.13" y1="600.785" y2="720.121"/>
  <line id="right-margin-Regular-S" style="fill:none;stroke:#00AEEF;stroke-width:0.5;opacity:1.0;" x1="1489.18" x2="1489.18" y1="600.785" y2="720.121"/>
  <line id="left-margin-Regular-S" style="fill:none;stroke:#00AEEF;stroke-width:0.5;opacity:1.0;" x1="1410.51" x2="1410.51" y1="600.785" y2="720.121"/>
  <line id="right-margin-Ultralight-S" style="fill:none;stroke:#00AEEF;stroke-width:0.5;opacity:1.0;" x1="598.702" x2="598.702" y1="600.785" y2="720.121"/>
  <line id="left-margin-Ultralight-S" style="fill:none;stroke:#00AEEF;stroke-width:0.5;opacity:1.0;" x1="520.721" x2="520.721" y1="600.785" y2="720.121"/>
 </g>
 <g id="Symbols">
  <g id="Black-S" transform="matrix(1 0 0 1 2886.13 696)">
    <path class="SFSymbolsPreviewWireframe" d="M 53.1416 -41.1011 L 50.5728 -41.1011 C 50.5728 -39.6831 51.7236 -38.5323 53.1416 -38.5323 Z M 75.5094 -59.8344 C 76.5138 -60.8388 76.5138 -62.4674 75.5094 -63.4718 C 74.5049 -64.4763 72.8764 -64.4763 71.8719 -63.4718 L 73.6921 -61.6516 Z M 70.7563 -38.5323 C 72.1751 -38.5323 73.3252 -39.6824 73.3252 -41.1011 C 73.3252 -42.5198 72.1751 -43.6699 70.7563 -43.6699 Z M 55.7104 -58.7158 C 55.7104 -60.1346 54.5603 -61.2847 53.1416 -61.2847 C 51.7229 -61.2847 50.5728 -60.1346 50.5728 -58.7158 Z M 19.0306 -10.6246 C 18.3809 -9.9749 18.1271 -9.0278 18.3649 -8.1402 C 18.6028 -7.2526 19.296 -6.5593 20.1836 -6.3215 C 21.0712 -6.0837 22.0183 -6.3374 22.6681 -6.9872 L 20.8479 -8.8074 Z M 41.3984 -29.3579 L 43.9672 -29.3579 C 43.9672 -30.7766 42.8171 -31.9267 41.3984 -31.9267 Z M 23.7837 -31.9267 C 22.3649 -31.9267 21.2148 -30.7766 21.2148 -29.3579 C 21.2148 -27.9392 22.3649 -26.7891 23.7837 -26.7891 Z M 38.8296 -11.7432 C 38.8296 -10.3244 39.9797 -9.1743 41.3984 -9.1743 C 42.8171 -9.1743 43.9672 -10.3244 43.9672 -11.7432 Z M 53.1416 -41.1011 L 54.9588 -39.2838 L 75.5094 -59.8344 L 73.6921 -61.6516 L 71.8749 -63.4689 L 51.3243 -42.9183 Z M 70.7563 -41.1011 L 70.7563 -43.6699 L 53.1416 -43.6699 L 53.1416 -38.5323 L 70.7563 -38.5323 Z M 53.1416 -41.1011 L 55.7104 -41.1011 L 55.7104 -58.7158 L 50.5728 -58.7158 L 50.5728 -41.1011 Z M 20.8479 -8.8074 L 22.6651 -6.9901 L 43.2157 -27.5407 L 41.3984 -29.3579 L 39.5812 -31.1752 L 19.0306 -10.6246 Z M 23.7837 -29.3579 L 23.7837 -26.7891 L 41.3984 -26.7891 L 41.3984 -31.9267 L 23.7837 -31.9267 Z M 41.3984 -29.3579 L 38.8296 -29.3579 L 38.8296 -11.7432 L 43.9672 -11.7432 L 43.9672 -29.3579 Z"/>
   </g>
  <g id="Regular-S" transform="matrix(1 0 0 1 1410.51 696)">
    <path class="SFSymbolsPreviewWireframe" d="M 45.2066 -41.1011 L 42.6378 -41.1011 C 42.6378 -39.6831 43.7886 -38.5323 45.2066 -38.5323 Z M 67.5744 -59.8344 C 68.5788 -60.8388 68.5788 -62.4674 67.5744 -63.4718 C 66.5699 -64.4763 64.9414 -64.4763 63.9369 -63.4718 L 65.7571 -61.6516 Z M 62.8213 -38.5323 C 64.2401 -38.5323 65.3902 -39.6824 65.3902 -41.1011 C 65.3902 -42.5198 64.2401 -43.6699 62.8213 -43.6699 Z M 47.7754 -58.7158 C 47.7754 -60.1346 46.6253 -61.2847 45.2066 -61.2847 C 43.7879 -61.2847 42.6378 -60.1346 42.6378 -58.7158 Z M 11.0956 -10.6246 C 10.4459 -9.9749 10.1921 -9.0278 10.4299 -8.1402 C 10.6678 -7.2526 11.361 -6.5593 12.2486 -6.3215 C 13.1362 -6.0837 14.0833 -6.3374 14.7331 -6.9872 L 12.9129 -8.8074 Z M 33.4634 -29.3579 L 36.0322 -29.3579 C 36.0322 -30.7766 34.8821 -31.9267 33.4634 -31.9267 Z M 15.8487 -31.9267 C 14.4299 -31.9267 13.2798 -30.7766 13.2798 -29.3579 C 13.2798 -27.9392 14.4299 -26.7891 15.8487 -26.7891 Z M 30.8946 -11.7432 C 30.8946 -10.3244 32.0447 -9.1743 33.4634 -9.1743 C 34.8821 -9.1743 36.0322 -10.3244 36.0322 -11.7432 Z M 45.2066 -41.1011 L 47.0238 -39.2838 L 67.5744 -59.8344 L 65.7571 -61.6516 L 63.9399 -63.4689 L 43.3893 -42.9183 Z M 62.8213 -41.1011 L 62.8213 -43.6699 L 45.2066 -43.6699 L 45.2066 -38.5323 L 62.8213 -38.5323 Z M 45.2066 -41.1011 L 47.7754 -41.1011 L 47.7754 -58.7158 L 42.6378 -58.7158 L 42.6378 -41.1011 Z M 12.9129 -8.8074 L 14.7301 -6.9901 L 35.2807 -27.5407 L 33.4634 -29.3579 L 31.6462 -31.1752 L 11.0956 -10.6246 Z M 15.8487 -29.3579 L 15.8487 -26.7891 L 33.4634 -26.7891 L 33.4634 -31.9267 L 15.8487 -31.9267 Z M 33.4634 -29.3579 L 30.8946 -29.3579 L 30.8946 -11.7432 L 36.0322 -11.7432 L 36.0322 -29.3579 Z"/>
   </g>
  <g id="Ultralight-S" transform="matrix(1 0 0 1 520.721 696)">
    <path class="SFSymbolsPreviewWireframe" d="M 44.8621 -41.1011 L 42.2933 -41.1011 C 42.2933 -39.6831 43.4441 -38.5323 44.8621 -38.5323 Z M 67.2299 -59.8344 C 68.2343 -60.8388 68.2343 -62.4674 67.2299 -63.4718 C 66.2254 -64.4763 64.5969 -64.4763 63.5924 -63.4718 L 65.4126 -61.6516 Z M 62.4768 -38.5323 C 63.8956 -38.5323 65.0457 -39.6824 65.0457 -41.1011 C 65.0457 -42.5198 63.8956 -43.6699 62.4768 -43.6699 Z M 47.4309 -58.7158 C 47.4309 -60.1346 46.2808 -61.2847 44.8621 -61.2847 C 43.4434 -61.2847 42.2933 -60.1346 42.2933 -58.7158 Z M 10.7511 -10.6246 C 10.1014 -9.9749 9.8476 -9.0278 10.0854 -8.1402 C 10.3233 -7.2526 11.0165 -6.5593 11.9041 -6.3215 C 12.7917 -6.0837 13.7388 -6.3374 14.3886 -6.9872 L 12.5684 -8.8074 Z M 33.1189 -29.3579 L 35.6877 -29.3579 C 35.6877 -30.7766 34.5376 -31.9267 33.1189 -31.9267 Z M 15.5042 -31.9267 C 14.0854 -31.9267 12.9353 -30.7766 12.9353 -29.3579 C 12.9353 -27.9392 14.0854 -26.7891 15.5042 -26.7891 Z M 30.5501 -11.7432 C 30.5501 -10.3244 31.7002 -9.1743 33.1189 -9.1743 C 34.5376 -9.1743 35.6877 -10.3244 35.6877 -11.7432 Z M 44.8621 -41.1011 L 46.6793 -39.2838 L 67.2299 -59.8344 L 65.4126 -61.6516 L 63.5954 -63.4689 L 43.0448 -42.9183 Z M 62.4768 -41.1011 L 62.4768 -43.6699 L 44.8621 -43.6699 L 44.8621 -38.5323 L 62.4768 -38.5323 Z M 44.8621 -41.1011 L 47.4309 -41.1011 L 47.4309 -58.7158 L 42.2933 -58.7158 L 42.2933 -41.1011 Z M 12.5684 -8.8074 L 14.3856 -6.9901 L 34.9362 -27.5407 L 33.1189 -29.3579 L 31.3017 -31.1752 L 10.7511 -10.6246 Z M 15.5042 -29.3579 L 15.5042 -26.7891 L 33.1189 -26.7891 L 33.1189 -31.9267 L 15.5042 -31.9267 Z M 33.1189 -29.3579 L 30.5501 -29.3579 L 30.5501 -11.7432 L 35.6877 -11.7432 L 35.6877 -29.3579 Z"/>
   </g>
 </g>
</svg>
